<?xml version="1.0" encoding="utf-8"?>
<!-- Generator: Adobe Illustrator 19.2.1, SVG Export Plug-In . SVG Version: 6.00 Build 0)  -->
<svg version="1.1" id="Camada_1" xmlns="http://www.w3.org/2000/svg" xmlns:xlink="http://www.w3.org/1999/xlink" x="0px" y="0px"
	 viewBox="0 0 142 42" style="enable-background:new 0 0 142 42;" xml:space="preserve">
<style type="text/css">
	.st0{fill:none;}
	.st1{fill:#FFFFFF;}
	.st2{fill:#D3D800;}
	.st3{fill:#FDC100;}
</style>
<title>logoTransparente_type6</title>
<desc>Created with Sketch.</desc>
<g id="Page-1">
	<g id="logoTransparente_type6">
		<g id="LocalizaHertz_1_" transform="translate(0.000000, 1.000000)">
			<g id="Group">
				<rect id="Rectangle-5" y="0" class="st0" width="142" height="41"/>
				<g id="LocalizaHertz" transform="translate(13.021834, 13.045455)">
					<path id="Shape" class="st1" d="M46.1,12.7l1.1-5.4c0.3-1.4,0.2-2.3-0.4-2.9c-0.6-0.6-1.5-0.8-2.8-0.8h-2.6
						c-0.2,0-0.4,0.2-0.5,0.4l-0.3,1.2c-0.1,0.4,0.2,0.4,0.2,0.4h3c0.4,0,0.7,0.2,0.9,0.6c0.1,0.2,0.1,0.5,0,0.7l0,0.2h-1.2
						c-0.5,0-1,0.1-1.5,0.2c-0.5,0.1-1,0.3-1.5,0.5c-0.5,0.2-0.9,0.6-1.2,1c-0.4,0.4-0.6,1-0.7,1.5c-0.1,0.5-0.1,1,0,1.5
						c0.1,0.4,0.3,0.8,0.7,1c0.4,0.3,0.8,0.5,1.2,0.6c0.6,0.1,1.1,0.2,1.7,0.2H45C45.6,13.6,46.1,13.3,46.1,12.7L46.1,12.7z
						 M43.8,11.5h-1.1h-0.6c-0.2,0-0.4-0.1-0.6-0.2c-0.2-0.1-0.3-0.2-0.4-0.4c-0.1-0.2-0.1-0.5,0-0.8c0.1-0.5,0.3-0.9,0.7-1.1
						c0.5-0.2,1-0.4,1.5-0.3h0.9L43.8,11.5z"/>
					<path id="Shape_1_" class="st1" d="M72,12.7l1.1-5.4c0.3-1.4,0.2-2.3-0.4-2.9c-0.6-0.6-1.5-0.8-2.8-0.8h-2.6
						c-0.2,0-0.4,0.2-0.5,0.4l-0.3,1.2c-0.1,0.4,0.2,0.4,0.2,0.4h3c0.4,0,0.7,0.2,0.9,0.6c0.1,0.2,0.1,0.5,0,0.7l0,0.2h-1.2
						c-0.5,0-1,0.1-1.5,0.2c-0.5,0.1-1,0.3-1.5,0.5c-0.5,0.2-0.9,0.6-1.2,1c-0.4,0.4-0.6,1-0.7,1.5c-0.1,0.5-0.1,1,0,1.5
						c0.1,0.4,0.3,0.8,0.7,1c0.4,0.3,0.8,0.5,1.2,0.6c0.6,0.1,1.1,0.2,1.7,0.2h2.8C71.4,13.6,71.9,13.3,72,12.7L72,12.7z M69.7,11.5
						h-1.1h-0.6c-0.2,0-0.4-0.1-0.6-0.1c-0.2-0.1-0.3-0.2-0.4-0.4c-0.1-0.2-0.1-0.5,0-0.8c0.1-0.5,0.3-0.9,0.8-1.1
						c0.5-0.2,1-0.4,1.5-0.3h0.9L69.7,11.5z"/>
					<path id="Shape_2_" class="st1" d="M56.6,2.7c0,0.2-0.2,0.3-0.4,0.3h-1.9c-0.1,0-0.2,0-0.2-0.1c-0.1-0.1-0.1-0.2,0-0.2l0.4-2
						c0-0.2,0.2-0.3,0.4-0.3h1.9c0.1,0,0.2,0,0.2,0.1c0.1,0.1,0.1,0.2,0,0.2L56.6,2.7z"/>
					<path id="Shape_3_" class="st1" d="M51.8,13.6l2-9.7c0-0.2,0.2-0.3,0.4-0.3h1.9c0.1,0,0.2,0,0.2,0.1s0.1,0.2,0,0.2l-1.9,8.8
						c0,0.5-0.4,0.8-0.8,0.8L51.8,13.6L51.8,13.6z"/>
					<path id="Shape_4_" class="st1" d="M65.2,3.6h-6.8c-0.2,0-0.4,0.2-0.5,0.4l-0.3,1.2c-0.1,0.4,0.2,0.4,0.2,0.4h3.9
						c0,0-3.1,3.4-4.7,5.2c-0.4,0.3-0.6,0.8-0.8,1.2l-0.3,1.6h6.8c0.2,0,0.4-0.2,0.4-0.4l0.3-1.2c0-0.1,0-0.2,0-0.3
						c-0.1-0.1-0.1-0.1-0.2-0.1h-3.9l5.5-6.1C65,4.9,65.2,4.3,65.2,3.6"/>
					<path id="Shape_5_" class="st1" d="M39,3.6c0.3,0,0.3,0.2,0.2,0.4L39,5.3c0,0.2-0.1,0.3-0.3,0.3h-2.8c-0.8,0-1.5,0.6-1.8,2.1
						l-0.3,1.4c-0.3,1.5,0.5,2.3,1.3,2.3h2.3c0,0,0.4,0,0.3,0.3l-0.3,1.4c0,0.2-0.1,0.4-0.3,0.4h-2.7c-2.3,0-3.7-1.5-3.2-4.4
						l0.3-1.4c0.6-2.8,1.7-4.2,4.9-4.2L39,3.6L39,3.6z"/>
					<path id="Shape_6_" class="st1" d="M28.7,4c-0.5-0.2-1.1-0.4-1.7-0.4H26c-0.5,0-1.1,0-1.6,0.1c-2,0.4-2.8,1.8-3.3,4.1l-0.3,1.4
						c-0.4,2,0.3,3.4,1.5,4c0.5,0.2,1.1,0.4,1.7,0.4h1.1c0.5,0,1.1,0,1.6-0.1c2-0.4,2.8-1.8,3.3-4.1L30.2,8C30.6,5.9,30,4.6,28.7,4
						 M27.6,8l-0.3,1.4c-0.3,1.4-0.9,2-1.6,2.1h-1.1c-0.8,0-1.6-0.7-1.3-2.3l0.3-1.4c0.3-1.4,0.9-2,1.6-2.1h1.1
						C27.2,5.7,28,6.4,27.6,8"/>
					<path id="Shape_7_" class="st1" d="M52.6,0.3h-1.9c-0.2,0-0.4,0.1-0.4,0.3l-0.1,0.7l0,0l-2.4,11.4c-0.1,0.2-0.1,0.4,0.1,0.6
						s0.3,0.3,0.5,0.3h1.9l2.3-10.9l0,0l0.4-2c0-0.1,0-0.2,0-0.2C52.7,0.3,52.6,0.3,52.6,0.3"/>
					<path id="Shape_8_" class="st1" d="M17.1,11.5c-0.3,0.1-0.7-0.1-0.9-0.3c-0.2-0.3-0.3-0.6-0.2-1l1.7-8.4L18,0.7
						c0-0.1,0-0.2,0-0.2c-0.1-0.1-0.1-0.1-0.2-0.1h-1.9c-0.2,0-0.4,0.1-0.4,0.3l-0.3,1.2l-1.7,8.4c-0.3,1.2-0.2,2.1,0.3,2.6
						c0.6,0.6,1.3,0.9,2.1,0.8h4.4c0.2,0,0.4,0,0.3-0.3c-0.4-0.6-0.7-1.2-0.9-1.8L17.1,11.5L17.1,11.5z"/>
					<path id="Shape_9_" class="st2" d="M6.3,3.7c0-2.5,6.5-3.4,6.5-3.4s-1.7,0-4.9,0.1C3.6,0.5,0.4,1.7,0.4,4.6s4,4.9,5.9,7
						c0.9,0.8,1.5,1.8,1.8,2.9c0.6-0.6,0.9-1.4,0.9-2.2C8.9,11,7.9,9.8,5.5,7.7C3.4,5.9,3,5.2,3,4.3C2.8,1.1,8.7,0.8,8.7,0.8
						s-5,0.6-4.8,3.1C4,5.2,5,6.2,7,7.7c3,2.3,2.9,4,2.9,4c0.6-0.8,0.8-1.9,0.6-2.9C10,6.7,6.4,5.4,6.3,3.7"/>
					<path id="Shape_11_" class="st3" d="M93.9,8.4h-3.3C91,7.5,91.8,6.9,92.8,7c0.4,0,0.7,0.2,0.9,0.4C93.9,7.7,94,8.1,93.9,8.4
						L93.9,8.4z M92.6,5.3c-0.9,0-1.8,0.4-2.6,1c-2.1,1.7-3.1,7.5,1.4,7.5c1.2,0,2.4-0.4,3.4-1.1L94,11.3c-0.7,0.5-4.1,1.7-3.8-1.1
						h5.4c0,0,0.7-2.3-0.3-3.6C94.6,5.7,93.7,5.3,92.6,5.3L92.6,5.3z M114.2,5.5h-6.5l-0.4,1.9h3.7l-4.6,4.4l-0.3,1.8h6.4l0.4-1.9
						h-3.7l4.7-4.5L114.2,5.5z M98.2,6.2c-0.8,0.7-1.3,1.6-1.4,2.7l-1,4.8h2l0.8-4C98.8,9,99,8.3,99.4,7.8c0.6-0.4,1.3-0.6,2-0.4
						l0.4-1.9C100.5,5.1,99.2,5.4,98.2,6.2L98.2,6.2z M86.4,3.6l-1,4.7h-3.6l1-4.7h-2.1l-2.1,10h2.1l0.7-3.5H85l-0.7,3.5h2l2.1-10
						L86.4,3.6L86.4,3.6z M103.8,11.6c-0.3-0.3-0.1-1,0-1.7l0.5-2.5h2.2l0.4-1.9h-2.2l0.4-1.9h-2l-1.3,6.5c-0.3,0.8-0.2,1.7,0.1,2.5
						c0.8,1.1,2.1,1.5,3.3,1l0.4-1.7C104.4,12,104,11.9,103.8,11.6L103.8,11.6z"/>
				</g>
			</g>
		</g>
	</g>
</g>
</svg>
